<svg width="1438" height="500" viewBox="0 0 1438 500" fill="none" xmlns="http://www.w3.org/2000/svg">
<g opacity="0.2">
<path d="M989.13 -261.81C1036.7 -244.247 1059.38 -219.609 1068.64 -190.126C1077.93 -160.536 1073.78 -125.893 1067.22 -88.1518C1066.11 -81.7841 1064.94 -75.3304 1063.75 -68.8017C1050.87 1.88034 1036.39 81.3641 1089.74 155.801C1143.68 231.062 1226.57 244.821 1299.28 256.889C1305.12 257.858 1310.89 258.816 1316.57 259.794C1354.92 266.391 1389.28 273.878 1413.85 291.541C1438.31 309.125 1453.21 336.901 1452.34 384.459C1450.59 480.093 1446.41 536.688 1427.53 587.812C1408.66 638.937 1375.06 684.67 1314.24 758.496C1253.43 832.319 1214.81 874.258 1167.29 903.722C1119.77 933.19 1063.28 950.222 966.624 974.04C918.422 985.919 885.335 984.142 859.813 973.83C834.279 963.513 816.164 944.597 798.005 921.841C793.35 916.008 788.696 909.926 783.917 903.681C751.417 861.215 713.136 811.193 629.549 780.333C548.546 750.427 480.272 758.928 419.895 766.445C408.837 767.822 398.045 769.166 387.488 770.234C353.359 773.69 321.722 774.277 291.411 763.979C261.127 753.689 232.058 732.494 203.161 692.173C145.171 611.26 113.304 561.609 96.3312 508.33C79.3599 455.056 77.2558 398.081 79.0029 302.451C79.8747 254.737 88.925 225.901 103.742 207.096C118.556 188.296 139.257 179.358 163.866 171.722C170.233 169.746 176.854 167.86 183.69 165.912C229.679 152.812 285.361 136.95 338.501 72.4443C388.433 11.8303 403.13 -51.7003 416.301 -108.641C419.218 -121.249 422.06 -133.533 425.193 -145.392C433.843 -178.134 444.698 -207.617 465.367 -231.883C486.019 -256.13 516.549 -275.261 564.715 -287.13C661.366 -310.948 719.698 -322.211 777.726 -318.75C835.758 -315.288 893.557 -297.095 989.13 -261.81Z" stroke="#FFDF70" stroke-width="2"/>
<path d="M950.415 -147.555C981.257 -136.067 999.257 -128.852 1009.31 -122.483C1014.32 -119.303 1017.3 -116.367 1018.92 -113.264C1020.53 -110.171 1020.82 -106.85 1020.33 -102.827C1019.89 -99.2929 1018.86 -95.2643 1017.62 -90.4138C1017.45 -89.7201 1017.26 -89.0097 1017.08 -88.2815C1015.61 -82.4752 1013.94 -75.5814 1012.7 -67.1809C1010.21 -50.375 1009.39 -27.5665 1015.04 4.65928C1020.39 35.1072 1016.54 56.6004 1013.19 75.3067C1013.01 76.3089 1012.83 77.3031 1012.65 78.2903C1009.21 97.719 1006.88 114.465 1017.2 135.572C1027.49 156.635 1050.35 181.995 1097.08 218.805C1143.81 255.624 1214.48 303.937 1320.46 370.894C1373.43 404.365 1412.93 432.32 1441.3 455.844C1469.68 479.374 1486.89 498.442 1495.35 514.131C1503.8 529.795 1503.49 542.024 1496.93 552.004C1490.34 562.044 1477.37 569.914 1460.23 576.651C1443.1 583.38 1421.9 588.943 1398.95 594.421C1392.08 596.063 1385.04 597.698 1377.92 599.353C1361.28 603.22 1344.14 607.204 1327.31 611.673C1303.28 618.058 1279.86 625.441 1259.42 634.911C1238.99 644.379 1221.51 655.947 1209.37 670.716C1202.23 679.401 1195.37 687.835 1188.73 696.002C1150.39 743.115 1119.3 781.323 1084.71 807.426C1044.16 838.016 998.799 851.978 931.275 844.006C863.908 836.052 837.305 791.127 808.406 740.906L807.366 739.1C778.764 689.382 747.453 634.954 671.826 607.033C596.009 579.042 536.424 600.034 482.105 619.171L480.547 619.719C425.785 639.007 376.374 655.867 320.633 618.56C208.944 543.806 196.65 421.509 221.85 306.23C228.142 277.449 237.493 259.776 249.627 247.377C261.772 234.968 276.743 227.796 294.392 220.083C296.231 219.279 298.1 218.47 299.996 217.648C334.493 202.697 378.278 183.72 429.615 121.242C477.514 62.9486 494.419 12.1188 509.057 -31.8985C510.967 -37.6425 512.839 -43.2706 514.736 -48.784C522.953 -72.6663 531.636 -94.3786 545.962 -114.098C560.283 -133.811 580.261 -151.556 611.098 -167.464C731.127 -229.382 822.058 -195.45 940.465 -151.265C943.76 -150.036 947.076 -148.798 950.415 -147.555Z" stroke="#FFDF70"/>
<path d="M922.459 -55.7381C944.269 -37.3713 954.74 -17.7877 959.325 2.80522C963.921 23.4452 962.616 45.1401 960.775 67.7811C960.62 69.688 960.461 71.6013 960.301 73.5208C956.681 117.114 952.794 163.912 987.187 211.85C1022.15 260.589 1069.86 273.336 1113.53 285.008C1114.7 285.319 1115.86 285.629 1117.01 285.939C1161.7 297.909 1201.51 309.694 1219.7 358.558C1233.33 395.175 1254.6 417.715 1271.95 436.093C1278.09 442.602 1283.74 448.589 1288.38 454.494C1297.28 465.802 1302.51 476.794 1300.89 490.683C1299.26 504.65 1290.67 521.731 1271.39 545.127C1232.84 591.894 1168.3 645.046 1100.32 683.72C1066.34 703.054 1031.52 718.752 998.686 728.228C965.841 737.707 935.053 740.937 909.088 735.416C883.052 729.879 865.127 720.407 850.906 708.61C836.893 696.986 826.444 683.084 815.342 668.312L814.786 667.571C792.152 637.459 766.745 604.179 703.429 580.803C640.146 557.44 591.57 563.036 547.57 568.351L546.453 568.486C502.91 573.747 463.914 578.459 419.147 554.531C373.871 530.332 332.638 488.459 305.231 441.142C277.818 393.814 264.313 341.174 274.278 295.436C279.234 272.69 290.652 259.375 306.342 250.501C322.115 241.58 342.213 237.137 364.592 232.255L365.272 232.107C409.806 222.394 462.798 210.836 506.103 158.303C546.024 109.876 558.051 55.478 568.967 6.10072C569.937 1.71354 570.899 -2.634 571.87 -6.93419C583.791 -59.718 597.196 -105.247 646.26 -130.399C695.507 -155.646 742.568 -155.463 788.299 -139.752C834.075 -124.024 878.527 -92.7334 922.459 -55.7381Z" stroke="#FFDF70" stroke-width="2"/>
<path d="M793.94 -104.155C818.247 -95.1814 836.378 -75.0998 850.827 -48.6383C865.277 -22.1767 876.011 10.607 885.552 44.8955C889.542 59.2333 893.325 73.8436 897.084 88.3598C902.305 108.526 907.48 128.511 913.096 147.332C922.759 179.713 933.76 208.769 948.642 229.591C978.344 271.149 1006.04 293.646 1035.74 309.22C1056.63 320.176 1078.52 327.708 1102.75 336.045C1112.92 339.544 1123.5 343.184 1134.59 347.278C1172 361.092 1205.11 396.517 1221.09 437.964C1237.06 479.399 1235.87 526.767 1204.83 564.513C1173.78 602.27 1118.75 617.451 1058.94 626.237C1036.48 629.537 1013.37 631.931 990.632 634.287C983.118 635.065 975.644 635.84 968.248 636.641C938.485 639.866 909.981 643.53 885.188 649.674C872.868 652.727 862.909 652.769 854.712 650.472C846.522 648.177 840.05 643.536 834.719 637.151C824.029 624.349 817.954 604.585 811.885 582.789C811.323 580.771 810.762 578.736 810.197 576.688C804.669 556.663 798.801 535.404 789.134 516.769C778.468 496.21 763.158 478.803 738.543 469.715C713.932 460.629 689.997 463.543 667.052 471.681C646.823 478.856 627.324 490.108 608.784 500.806C606.308 502.235 603.849 503.654 601.408 505.052C580.651 516.938 561.201 527.293 543.258 529.534C534.304 530.653 525.74 529.747 517.583 526.005C509.423 522.262 501.633 515.665 494.256 505.344C466.665 466.739 428.033 460.364 394.876 454.893C392.221 454.455 389.6 454.022 387.023 453.579C369.61 450.588 354.25 447.138 343.345 438.378C332.484 429.655 325.961 415.59 326.429 391.145C326.895 366.767 338 346.583 355.427 328.814C372.862 311.036 396.6 295.705 422.272 281.047C432.873 274.994 443.813 269.052 454.769 263.1C470.312 254.657 485.889 246.196 500.578 237.377C525.638 222.33 548.223 206.182 563.869 187.155C589.471 156.021 597.028 123.408 603.801 94.1743C605.301 87.701 606.762 81.3935 608.373 75.3044C612.819 58.4931 618.394 43.3518 628.994 30.8834C639.585 18.425 655.235 8.58987 679.913 2.47425C704.794 -3.69147 718.321 -15.762 726.108 -29.8614C733.581 -43.3935 735.741 -58.76 737.659 -72.4002C737.734 -72.936 737.809 -73.4692 737.884 -73.9995C738.877 -81.0311 739.855 -87.5449 741.524 -93.0958C743.192 -98.6447 745.533 -103.174 749.212 -106.278C756.547 -112.465 769.476 -113.187 793.94 -104.155Z" stroke="#FFDF70"/>
</g>
</svg>
