<svg width="439" height="616" viewBox="0 0 439 616" fill="none" xmlns="http://www.w3.org/2000/svg">
<mask id="mask0" mask-type="alpha" maskUnits="userSpaceOnUse" x="4" y="0" width="431" height="608">
<path d="M4 0H435V608H4V0Z" fill="#0C0C0C"/>
</mask>
<g mask="url(#mask0)">
<path d="M207.568 -290.508C253.673 -290.508 280.756 -276.636 297.924 -254.422C315.16 -232.12 322.525 -201.27 328.816 -166.995C329.878 -161.212 330.908 -155.334 331.95 -149.388C343.23 -85.0206 355.923 -12.595 424.927 34.1401C494.692 81.3911 569.791 67.0103 635.628 54.4031C640.916 53.3906 646.143 52.3896 651.303 51.4328C686.104 44.9805 717.759 40.5507 744.267 47.8747C770.647 55.1631 792.084 74.147 806.317 114.983C834.954 197.141 849.211 246.739 849.211 296.294C849.211 345.85 834.954 395.447 806.317 477.606C777.682 559.761 757.942 607.704 726.688 647.804C695.431 687.909 652.61 720.231 577.638 771.008C540.26 796.324 511.486 805.222 486.486 804.464C461.473 803.705 440.073 793.281 417.412 779.585C411.604 776.075 405.718 772.352 399.673 768.529C358.563 742.529 310.119 711.89 229.047 711.89C150.484 711.89 94.8846 740.665 45.7343 766.102C36.7341 770.76 27.9502 775.306 19.2812 779.542C-8.74915 793.242 -35.5448 803.703 -64.6326 804.464C-93.6914 805.224 -125.155 796.303 -162.502 771.008C-237.474 720.231 -280.295 687.909 -311.552 647.804C-342.805 607.704 -362.545 559.761 -391.181 477.606C-405.465 436.624 -406.82 409.188 -400.11 388.501C-393.401 367.818 -378.572 353.683 -359.983 339.416C-355.174 335.725 -350.119 332.031 -344.9 328.216C-309.784 302.548 -267.246 271.454 -242.215 199.64C-218.696 132.163 -226.173 73.2959 -232.872 20.556C-234.355 8.88037 -235.8 -2.49496 -236.862 -13.597C-239.795 -44.2582 -239.819 -72.8202 -229.835 -100.02C-219.859 -127.196 -199.85 -153.124 -162.502 -178.42C-87.5341 -229.194 -41.3194 -257.175 9.27075 -272.498C59.8639 -287.822 114.901 -290.508 207.568 -290.508Z" stroke="#FFDF70" stroke-width="2"/>
<path d="M210.72 -180.04C240.675 -179.954 258.312 -179.468 268.892 -177.202C274.173 -176.071 277.634 -174.508 279.984 -172.379C282.325 -170.258 283.616 -167.527 284.462 -163.948C285.206 -160.802 285.596 -157.047 286.066 -152.521C286.133 -151.874 286.202 -151.211 286.274 -150.532C286.846 -145.118 287.6 -138.716 289.185 -131.16C292.356 -116.044 298.846 -96.3372 313.838 -70.6421C327.996 -46.3756 331.481 -26.8475 334.515 -9.84634C334.678 -8.9355 334.839 -8.03191 335.001 -7.13522C338.181 10.5145 341.475 25.5353 356.947 40.2928C372.383 55.0155 399.903 69.4427 451.398 86.1169C502.908 102.796 578.47 121.742 690.053 145.467C745.832 157.327 788.361 168.727 819.995 179.85C851.64 190.977 872.34 201.812 884.501 212.519C896.64 223.206 900.22 233.713 897.776 244.262C895.316 254.881 886.732 265.665 874.218 276.803C861.718 287.928 845.374 299.341 827.512 311.233C822.159 314.797 816.67 318.403 811.109 322.057C798.123 330.59 784.742 339.382 771.785 348.489C753.278 361.496 735.609 375.163 721.143 389.67C706.679 404.176 695.394 419.546 689.685 435.965C686.329 445.616 683.128 454.967 680.029 464.021C662.15 516.25 647.654 558.599 626.348 591.735C601.383 630.563 567.064 656.736 506.912 671.19C446.914 685.606 410.057 655.697 369.553 621.979L368.095 620.765C328.005 587.383 284.106 550.829 210.722 550.829C137.153 550.829 92.8878 587.487 52.5452 620.897L51.386 621.857C10.7108 655.536 -26.1443 685.444 -85.4688 671.19C-204.361 642.622 -253.398 542.257 -268.218 436.06C-271.918 409.55 -269.505 391.551 -263.058 377.172C-256.605 362.78 -246.09 351.96 -233.453 339.829C-232.136 338.565 -230.796 337.287 -229.437 335.989C-204.695 312.385 -173.289 282.421 -149.148 212.99C-126.626 148.212 -128.216 99.5518 -129.592 57.4198C-129.772 51.9219 -129.948 46.5352 -130.066 41.2384C-130.579 18.2938 -130.009 -2.94287 -123.996 -24.2559C-117.985 -45.5598 -106.526 -66.9694 -85.217 -90.2311C-2.27124 -180.778 86.0384 -180.471 201.061 -180.071C204.26 -180.06 207.48 -180.049 210.72 -180.04Z" stroke="#FFDF70"/>
<path d="M216 -93.9517C240.348 -85.1524 255.419 -71.7458 265.795 -55.6257C276.198 -39.4651 281.91 -20.5434 287.465 -0.631584C287.933 1.04683 288.4 2.73198 288.868 4.42267C299.499 42.7802 310.92 83.99 355.343 114.096C400.509 144.706 445.204 140.55 486.099 136.748C487.19 136.647 488.278 136.545 489.364 136.445C531.216 132.579 568.804 130.101 599.649 166.047C622.802 193.029 648.051 205.58 668.619 215.805C675.898 219.423 682.592 222.75 688.398 226.323C699.524 233.168 707.424 240.885 710.404 253.222C713.403 265.636 711.467 282.906 702.393 308.956C684.256 361.024 645.986 426.737 600.223 481.177C577.346 508.393 552.616 532.766 527.622 551.2C502.618 569.641 477.408 582.095 453.563 585.562C429.645 589.04 411.403 586.604 395.585 581.02C379.995 575.516 366.724 566.945 352.611 557.831L351.908 557.377C323.137 538.799 290.994 518.382 229.649 518.382C168.34 518.382 128.684 538.481 92.8544 556.889L91.9513 557.353C56.4925 575.572 24.7633 591.875 -20.8909 585.561C-67.0728 579.174 -115.375 556.43 -153.61 524.68C-191.855 492.922 -219.911 452.254 -225.806 410.092C-228.736 389.135 -223.202 374.193 -212.638 361.69C-202.013 349.114 -186.295 338.993 -168.754 327.769L-168.218 327.425C-133.319 305.095 -91.7694 278.509 -71.381 219.978C-52.5885 166.027 -59.458 115.772 -65.6907 70.1752C-66.2445 66.1231 -66.7934 62.1078 -67.3188 58.1301C-73.7674 9.30458 -76.6601 -33.7524 -42.7894 -70.6594C-8.7803 -107.717 31.3607 -122.386 75.2575 -123.387C119.203 -124.388 166.92 -111.689 216 -93.9517Z" stroke="#FFDF70" stroke-width="2"/>
<path d="M90.6441 -94.3728C114.186 -94.3728 135.964 -82.9644 156.616 -64.9523C177.268 -46.9401 196.745 -22.3676 215.68 3.8672C223.596 14.836 231.423 26.1034 239.2 37.2988C250.005 52.8521 260.712 68.2663 271.429 82.5475C289.867 107.119 308.403 128.437 327.659 141.512C366.085 167.603 396.801 178.068 427.04 182.001C448.312 184.768 469.36 184.299 492.653 183.78C502.426 183.562 512.594 183.336 523.339 183.336C559.585 183.336 598.969 203.112 625.639 233.418C652.299 263.715 666.196 304.464 651.615 346.403C637.029 388.357 594.882 418.623 546.639 444.943C528.519 454.829 509.565 464.145 490.917 473.311C484.752 476.341 478.621 479.354 472.564 482.367C448.195 494.487 425.034 506.586 405.82 519.632C396.278 526.111 387.804 529.279 380.1 529.9C372.402 530.521 365.43 528.603 358.879 524.841C345.74 517.296 334.34 502.364 322.3 485.686C321.185 484.142 320.065 482.584 318.938 481.015C307.918 465.68 296.216 449.395 282.099 436.544C266.522 422.365 247.973 412.335 224.102 412.335C200.236 412.335 180.729 422.362 163.716 436.53C148.719 449.019 135.628 464.756 123.184 479.715C121.522 481.713 119.872 483.697 118.23 485.658C104.268 502.33 90.9453 517.276 76.3569 524.831C69.0779 528.6 61.4969 530.521 53.371 529.9C45.2423 529.278 36.5285 526.108 26.9914 519.632C-8.71432 495.388 -43.6894 502.118 -73.6905 507.891C-76.094 508.354 -78.4656 508.81 -80.803 509.244C-96.5987 512.175 -110.774 514.066 -122.821 510.034C-134.813 506.021 -144.799 496.094 -152.094 475.11C-159.367 454.19 -156.255 433.494 -146.99 412.863C-137.72 392.22 -122.305 371.677 -105.025 351.096C-97.8907 342.599 -90.4317 334.088 -82.9609 325.564C-72.3618 313.47 -61.739 301.349 -51.9878 289.204C-35.3507 268.483 -21.1685 247.597 -13.8123 226.439C-1.77594 191.819 -5.60239 161.617 -9.03098 134.556C-9.79004 128.565 -10.5296 122.727 -11.0732 117.03C-12.5744 101.297 -12.5869 86.6384 -7.47568 72.6788C-2.3689 58.7313 7.87453 45.4249 26.9914 32.4445C46.2805 19.3472 54.0251 4.78477 56.2284 -9.70311C58.3423 -23.6036 55.3444 -37.3948 52.6852 -49.6282C52.5805 -50.1096 52.4764 -50.5886 52.3731 -51.065C51.0058 -57.3744 49.7902 -63.2337 49.4655 -68.4883C49.141 -73.7409 49.7116 -78.3304 51.8661 -82.124C56.1601 -89.685 66.9346 -94.3728 90.6441 -94.3728Z" stroke="#FFDF70"/>
</g>
</svg>
