<svg width="364" height="546" viewBox="0 0 364 546" fill="none" xmlns="http://www.w3.org/2000/svg">
<mask id="mask0" mask-type="alpha" maskUnits="userSpaceOnUse" x="0" y="0" width="431" height="608">
<rect x="0.5" y="0.5" width="430" height="607" fill="#7166A2" stroke="#FFDF70"/>
</mask>
<g mask="url(#mask0)">
<path d="M203.568 -290.508C249.673 -290.508 276.756 -276.636 293.924 -254.422C311.16 -232.12 318.525 -201.27 324.816 -166.995C325.878 -161.212 326.908 -155.334 327.95 -149.388C339.23 -85.0206 351.923 -12.595 420.927 34.1401C490.692 81.3911 565.791 67.0103 631.628 54.4031C636.916 53.3906 642.143 52.3896 647.303 51.4328C682.104 44.9805 713.759 40.5507 740.267 47.8747C766.647 55.1631 788.084 74.147 802.317 114.983C830.954 197.141 845.211 246.739 845.211 296.294C845.211 345.85 830.954 395.447 802.317 477.606C773.682 559.761 753.942 607.704 722.688 647.804C691.431 687.909 648.61 720.231 573.638 771.008C536.26 796.324 507.486 805.222 482.486 804.464C457.473 803.705 436.073 793.281 413.412 779.585C407.604 776.075 401.718 772.352 395.673 768.529C354.563 742.529 306.119 711.89 225.047 711.89C146.484 711.89 90.8846 740.665 41.7343 766.102C32.7341 770.76 23.9502 775.306 15.2812 779.542C-12.7491 793.242 -39.5448 803.703 -68.6326 804.464C-97.6914 805.224 -129.155 796.303 -166.502 771.008C-241.474 720.231 -284.295 687.909 -315.552 647.804C-346.805 607.704 -366.545 559.761 -395.181 477.606C-409.465 436.624 -410.82 409.188 -404.11 388.501C-397.401 367.818 -382.572 353.683 -363.983 339.416C-359.174 335.725 -354.119 332.031 -348.9 328.216C-313.784 302.548 -271.246 271.454 -246.215 199.64C-222.696 132.163 -230.173 73.2959 -236.872 20.556C-238.355 8.88037 -239.8 -2.49496 -240.862 -13.597C-243.795 -44.2582 -243.819 -72.8202 -233.835 -100.02C-223.859 -127.196 -203.85 -153.124 -166.502 -178.42C-91.5341 -229.194 -45.3194 -257.175 5.27075 -272.498C55.8639 -287.822 110.901 -290.508 203.568 -290.508Z" stroke="#FFDF70" stroke-width="2"/>
<path d="M206.72 -180.04C236.675 -179.954 254.312 -179.468 264.892 -177.202C270.173 -176.071 273.634 -174.508 275.984 -172.379C278.325 -170.258 279.616 -167.527 280.462 -163.948C281.206 -160.802 281.596 -157.047 282.066 -152.521C282.133 -151.874 282.202 -151.211 282.274 -150.532C282.846 -145.118 283.6 -138.716 285.185 -131.16C288.356 -116.044 294.846 -96.3372 309.838 -70.6421C323.996 -46.3756 327.481 -26.8475 330.515 -9.84634C330.678 -8.9355 330.839 -8.03191 331.001 -7.13522C334.181 10.5145 337.475 25.5353 352.947 40.2928C368.383 55.0155 395.903 69.4427 447.398 86.1169C498.908 102.796 574.47 121.742 686.053 145.467C741.832 157.327 784.361 168.727 815.995 179.85C847.64 190.977 868.34 201.812 880.501 212.519C892.64 223.206 896.22 233.713 893.776 244.262C891.316 254.881 882.732 265.665 870.218 276.803C857.718 287.928 841.374 299.341 823.512 311.233C818.159 314.797 812.67 318.403 807.109 322.057C794.123 330.59 780.742 339.382 767.785 348.489C749.278 361.496 731.609 375.163 717.143 389.67C702.679 404.176 691.394 419.546 685.685 435.965C682.329 445.616 679.128 454.967 676.029 464.021C658.15 516.25 643.654 558.599 622.348 591.735C597.383 630.563 563.064 656.736 502.912 671.19C442.914 685.606 406.057 655.697 365.553 621.979L364.095 620.765C324.005 587.383 280.106 550.829 206.722 550.829C133.153 550.829 88.8878 587.487 48.5452 620.897L47.386 621.857C6.71077 655.536 -30.1443 685.444 -89.4688 671.19C-208.361 642.622 -257.398 542.257 -272.218 436.06C-275.918 409.55 -273.505 391.551 -267.058 377.172C-260.605 362.78 -250.09 351.96 -237.453 339.829C-236.136 338.565 -234.796 337.287 -233.436 335.989C-208.695 312.385 -177.289 282.421 -153.148 212.99C-130.626 148.212 -132.216 99.5518 -133.592 57.4198C-133.772 51.9219 -133.948 46.5352 -134.066 41.2384C-134.579 18.2938 -134.009 -2.94287 -127.996 -24.2559C-121.985 -45.5598 -110.526 -66.9694 -89.2169 -90.2311C-6.27122 -180.778 82.0384 -180.471 197.061 -180.071C200.26 -180.06 203.48 -180.049 206.72 -180.04Z" stroke="#FFDF70"/>
<path d="M212 -93.952C236.348 -85.1527 251.419 -71.7461 261.795 -55.6259C272.198 -39.4653 277.91 -20.5437 283.465 -0.631828C283.933 1.04659 284.4 2.73174 284.868 4.42242C295.499 42.78 306.92 83.9898 351.343 114.096C396.509 144.706 441.204 140.55 482.099 136.748C483.19 136.646 484.278 136.545 485.364 136.445C527.216 132.579 564.804 130.101 595.649 166.047C618.802 193.029 644.051 205.58 664.619 215.804C671.898 219.423 678.592 222.75 684.398 226.322C695.524 233.168 703.424 240.885 706.404 253.222C709.403 265.635 707.467 282.906 698.393 308.956C680.256 361.024 641.986 426.737 596.223 481.177C573.346 508.393 548.616 532.765 523.622 551.2C498.618 569.641 473.408 582.095 449.563 585.562C425.645 589.04 407.403 586.604 391.585 581.02C375.995 575.516 362.724 566.945 348.611 557.831L347.908 557.377C319.137 538.799 286.994 518.382 225.649 518.382C164.34 518.382 124.684 538.481 88.8544 556.889L87.9513 557.353C52.4925 575.572 20.7633 591.875 -24.8909 585.561C-71.0728 579.174 -119.375 556.43 -157.61 524.68C-195.855 492.922 -223.911 452.254 -229.806 410.092C-232.736 389.135 -227.202 374.193 -216.638 361.69C-206.013 349.114 -190.295 338.993 -172.754 327.768L-172.218 327.425C-137.319 305.095 -95.7694 278.509 -75.381 219.977C-56.5885 166.027 -63.458 115.771 -69.6907 70.1749C-70.2446 66.1229 -70.7934 62.1076 -71.3188 58.1298C-77.7674 9.30434 -80.6601 -33.7527 -46.7894 -70.6596C-12.7803 -107.717 27.3607 -122.387 71.2575 -123.387C115.203 -124.388 162.92 -111.689 212 -93.952Z" stroke="#FFDF70" stroke-width="2"/>
<path d="M86.6441 -94.3728C110.186 -94.3728 131.964 -82.9644 152.616 -64.9523C173.268 -46.9401 192.745 -22.3676 211.68 3.8672C219.596 14.836 227.423 26.1034 235.2 37.2988C246.005 52.8521 256.712 68.2663 267.429 82.5475C285.867 107.119 304.403 128.437 323.659 141.512C362.085 167.603 392.801 178.068 423.04 182.001C444.312 184.768 465.36 184.299 488.653 183.78C498.426 183.562 508.594 183.336 519.339 183.336C555.585 183.336 594.969 203.112 621.639 233.418C648.299 263.715 662.196 304.464 647.615 346.403C633.029 388.357 590.882 418.623 542.639 444.943C524.519 454.829 505.565 464.145 486.917 473.311C480.752 476.341 474.621 479.354 468.564 482.367C444.195 494.487 421.034 506.586 401.82 519.632C392.278 526.111 383.804 529.279 376.1 529.9C368.402 530.521 361.43 528.603 354.879 524.841C341.74 517.296 330.34 502.364 318.3 485.686C317.185 484.142 316.065 482.584 314.938 481.015C303.918 465.68 292.216 449.395 278.099 436.544C262.522 422.365 243.973 412.335 220.102 412.335C196.236 412.335 176.729 422.362 159.716 436.53C144.719 449.019 131.628 464.756 119.184 479.715C117.522 481.713 115.872 483.697 114.23 485.658C100.268 502.33 86.9453 517.276 72.3569 524.831C65.0778 528.6 57.4969 530.521 49.3709 529.9C41.2422 529.278 32.5285 526.108 22.9913 519.632C-12.7144 495.388 -47.6894 502.118 -77.6905 507.891C-80.094 508.354 -82.4656 508.81 -84.803 509.244C-100.599 512.175 -114.775 514.066 -126.821 510.034C-138.814 506.021 -148.799 496.094 -156.094 475.11C-163.367 454.19 -160.255 433.494 -150.99 412.863C-141.72 392.22 -126.305 371.677 -109.025 351.096C-101.891 342.599 -94.4317 334.088 -86.9609 325.564C-76.3618 313.47 -65.739 301.349 -55.9878 289.204C-39.3507 268.483 -25.1685 247.597 -17.8123 226.439C-5.77597 191.819 -9.60242 161.617 -13.031 134.556C-13.7901 128.565 -14.5296 122.727 -15.0732 117.03C-16.5744 101.297 -16.5869 86.6384 -11.4757 72.6788C-6.36893 58.7313 3.8745 45.4249 22.9913 32.4445C42.2805 19.3472 50.0251 4.78477 52.2284 -9.70311C54.3423 -23.6036 51.3444 -37.3948 48.6851 -49.6282C48.5805 -50.1096 48.4763 -50.5886 48.3731 -51.065C47.0057 -57.3744 45.7902 -63.2337 45.4655 -68.4883C45.141 -73.7409 45.7116 -78.3304 47.866 -82.124C52.16 -89.685 62.9346 -94.3728 86.6441 -94.3728Z" stroke="#FFDF70"/>
</g>
</svg>
