<svg width="1440" height="500" viewBox="0 0 1440 500" fill="none" xmlns="http://www.w3.org/2000/svg">
<rect width="1440" height="500" fill="#FFDF70"/>
<mask id="mask0" mask-type="alpha" maskUnits="userSpaceOnUse" x="0" y="0" width="1440" height="500">
<rect width="1440" height="500" fill="white"/>
</mask>
<g mask="url(#mask0)">
<rect opacity="0.0542922" x="-86.3448" y="810.273" width="889" height="587" rx="130" transform="rotate(-45 -86.3448 810.273)" fill="black"/>
<rect opacity="0.0783808" x="-117.88" y="-23.877" width="507" height="402" rx="90" transform="rotate(-45 -117.88 -23.877)" fill="#3C65EE" stroke="white" stroke-width="80"/>
<rect opacity="0.101935" x="1025.24" y="183.396" width="889" height="587" rx="130" transform="rotate(-45 1025.24 183.396)" fill="white"/>
<mask id="mask1" mask-type="alpha" maskUnits="userSpaceOnUse" x="1079" y="-392" width="937" height="937">
<rect x="1025.24" y="183.396" width="889" height="587" rx="130" transform="rotate(-45 1025.24 183.396)" fill="white"/>
</mask>
<g mask="url(#mask1)">
<path opacity="0.2" d="M1852.25 -263.348C2269.2 -176.056 2183.05 -17.2327 2047.45 -59.0546C1911.86 -100.876 1745.77 -187.933 1572.13 -32.6327C1398.49 122.667 1433.35 422.998 1509.81 459.959C1586.27 496.92 1452.21 493.511 1543.32 245.497C1609.94 64.1503 1618.51 -48.8947 1673.9 -67.0052C1694.26 -73.663 1703.35 -38.6475 1749.11 -30.6503C1780.12 -25.2301 2105.16 120.055 2111.79 122.313C2141.55 132.45 1630.65 -40.9245 1659.24 -11.676C1694.2 24.088 1963.06 304.532 1891.15 290.205C1819.24 275.878 1713.61 75.4343 1616.15 165.746C1572.05 206.611 1634.58 429.097 1600.7 503.894C1559.71 594.4 1426.27 526.339 1422.36 405.067C1415.22 183.573 1358.62 -133.465 1466.89 -247.178C1575.17 -360.892 1420.83 -113.145 1449.92 -46.8677C1479.02 19.4098 1584.18 -102.975 1621.01 -158.937C1657.85 -214.9 1279 -472.602 1325.82 -204.514C1372.65 63.5745 1358.09 276.613 1329.51 335.999C1300.93 395.385 1094.43 355.277 1094.43 355.277C1094.43 355.277 1318.87 259.938 1295.74 63.6782C1272.61 -132.582 1227.56 -41.8164 1227.56 -41.8164C1227.56 -41.8164 1264.12 183.903 1066.93 209.068" stroke="#313131" stroke-width="2.4"/>
</g>
</g>
</svg>
