<svg width="27" height="17" viewBox="0 0 27 17" fill="none" xmlns="http://www.w3.org/2000/svg">
<path fill-rule="evenodd" clip-rule="evenodd" d="M6.43366 16.4869C3.19649 15.4235 0.843216 12.163 0.913658 8.74635C0.753304 4.52441 4.45171 0.622814 8.67791 0.572548C10.8319 0.388831 12.9271 1.22529 14.5576 2.58954C13.8892 3.32441 13.2089 4.05149 12.4818 4.73184C11.0468 3.85998 9.31897 3.19556 7.6418 3.78565C4.93702 4.55556 3.29879 7.74954 4.2995 10.3963C5.12853 13.1602 8.4903 14.677 11.125 13.5159C12.4896 13.0274 13.3887 11.7687 13.7834 10.4161C13.0815 10.4019 12.3795 10.3981 11.6775 10.3943C10.8158 10.3897 9.95406 10.385 9.09242 10.3612L9.09193 10.2454C9.08819 9.35399 9.08445 8.4656 9.08853 7.57396C9.37779 7.57353 9.6671 7.57305 9.95646 7.57257C12.2754 7.56873 14.597 7.56487 16.9186 7.58565C17.079 9.86458 16.7423 12.3039 15.2609 14.1336C13.2319 16.7449 9.48286 17.5113 6.43366 16.4869ZM21.9991 5.39167L22.0007 5.22777C22.7745 5.22777 23.5487 5.22777 24.3264 5.22812C24.3285 5.61681 24.3314 6.00656 24.3344 6.39635C24.3373 6.78647 24.3402 7.17663 24.3423 7.56582C25.1163 7.57357 25.8941 7.57746 26.6677 7.58134L26.68 7.5814V9.91131L24.3423 9.92299C24.3352 10.6032 24.3316 11.2802 24.328 11.9596C24.3275 12.0612 24.327 12.1628 24.3264 12.2646C23.8077 12.262 23.2888 12.2629 22.771 12.2637C22.5125 12.2642 22.2543 12.2646 21.9965 12.2646C21.9926 11.8741 21.9907 11.4847 21.9887 11.0957C21.9868 10.7058 21.9848 10.3164 21.9809 9.92688C21.2067 9.91878 20.4284 9.91489 19.6538 9.91101L19.6432 9.91096V7.58104C20.4213 7.57715 21.199 7.57326 21.9809 7.56547C21.9845 6.84236 21.9918 6.11558 21.9991 5.39167Z" fill="#CDCED6"/>
</svg>
