<svg width="22" height="17" viewBox="0 0 22 17" fill="none" xmlns="http://www.w3.org/2000/svg">
<path d="M21.5386 2.00343C20.7463 2.34308 19.8941 2.57279 19.0004 2.67539C19.9129 2.14681 20.6132 1.31045 20.9437 0.31224C20.0899 0.801947 19.1438 1.1572 18.1376 1.34869C17.3316 0.518701 16.1831 0 14.9114 0C12.4714 0 10.4925 1.91327 10.4925 4.27227C10.4925 4.60713 10.5317 4.93307 10.6075 5.24595C6.935 5.06785 3.67874 3.3671 1.49911 0.781556C1.11881 1.41241 0.900654 2.14681 0.900654 2.92964C0.900654 4.41151 1.68135 5.71973 2.86641 6.48567C2.14239 6.46369 1.46056 6.27157 0.865063 5.95072C0.864733 5.96888 0.864733 5.98704 0.864733 6.00489C0.864733 8.07491 2.38856 9.80147 4.40968 10.1937C4.03927 10.2918 3.64809 10.3438 3.24571 10.3438C2.96033 10.3438 2.68384 10.3173 2.41427 10.2676C2.97647 11.9645 4.60806 13.1998 6.54218 13.2345C5.02956 14.3806 3.12444 15.0634 1.05356 15.0634C0.697652 15.0634 0.345036 15.0433 0 15.0035C1.95455 16.2161 4.27786 16.9231 6.77319 16.9231C14.9012 16.9231 19.3461 10.4132 19.3461 4.76708C19.3461 4.58196 19.3418 4.39749 19.3332 4.2146C20.1973 3.61243 20.9464 2.86018 21.5386 2.00343Z" fill="#CDCED6"/>
</svg>
